<svg xmlns="http://www.w3.org/2000/svg" width="24" height="24" fill="none" viewBox="0 0 24 24"><path fill="currentColor" d="M12 24C18.6274 24 24 18.6274 24 12C24 5.37258 18.6274 0 12 0C5.37258 0 0 5.37258 0 12C0 18.6274 5.37258 24 12 24Z"/><path fill="#fff" d="M8.04743 9.01654C7.95151 8.89747 7.80597 8.83131 7.65052 8.83131H4.44544C4.41898 8.83131 4.39582 8.82139 4.37598 8.80485C4.35944 8.78832 4.34952 8.76847 4.34952 8.74532V6.58545C4.34952 6.5623 4.35944 6.54245 4.37598 6.52591C4.39582 6.50607 4.41898 6.49614 4.44544 6.49945H7.83244C8.6858 6.49945 9.4234 6.85006 10.0452 7.54796L10.8688 8.55348L9.26463 10.5083L8.04743 9.01654ZM13.9681 7.53804C14.5866 6.84675 15.3275 6.49945 16.1908 6.49945H19.5678C19.591 6.49614 19.6142 6.50607 19.6307 6.5193C19.6472 6.53583 19.6538 6.55899 19.6505 6.58545V8.74532C19.6505 8.76847 19.6439 8.78832 19.6307 8.80485C19.6142 8.8247 19.591 8.83462 19.5678 8.83131H16.3628C16.2106 8.82801 16.0651 8.89747 15.9659 9.01654L13.6042 11.8909L15.9758 14.785C16.0717 14.8942 16.2139 14.9603 16.3595 14.957H19.5645C19.5877 14.9537 19.6142 14.9669 19.6274 14.9835C19.6406 15.0033 19.6505 15.0298 19.6472 15.0529V17.2128C19.6472 17.2359 19.6406 17.2558 19.6274 17.2723C19.6108 17.2922 19.5877 17.3021 19.5645 17.2988H16.1908C15.3275 17.2988 14.5932 16.9482 13.978 16.2503L12.0133 13.8523L10.0485 16.2503C9.43001 16.9482 8.68911 17.2988 7.82582 17.2988H4.44544C4.42229 17.3021 4.39582 17.2889 4.38259 17.2723C4.36606 17.2525 4.35944 17.226 4.36275 17.2029V15.043C4.36275 15.0198 4.36936 15 4.38259 14.9835C4.39913 14.9636 4.42229 14.9537 4.44544 14.957H7.65052C7.80267 14.957 7.9482 14.8875 8.04743 14.7718L10.3661 11.9405L13.9681 7.53804Z"/></svg>